<?xml version="1.0" encoding="UTF-8"?>
<svg version="1.1" xmlns="http://www.w3.org/2000/svg" width="377" height="116">
<path d="M0 0 C124.41 0 248.82 0 377 0 C377 38.28 377 76.56 377 116 C252.59 116 128.18 116 0 116 C0 77.72 0 39.44 0 0 Z " fill="#FEFEFE" transform="translate(0,0)"/>
<path d="M0 0 C13.86 0 27.72 0 42 0 C41.16184862 4.19075691 40.49330151 6.28073843 38.4375 9.8125 C37.98246094 10.60269531 37.52742188 11.39289062 37.05859375 12.20703125 C36.70925781 12.79871094 36.35992187 13.39039063 36 14 C34.68 14 33.36 14 32 14 C33.1258614 10.46157845 34.33094759 7.33810482 36 4 C25.77 4 15.54 4 5 4 C6.5675 6.5575 8.135 9.115 9.75 11.75 C15.41636163 21.01156448 21.00722796 30.31740603 26.58203125 39.63427734 C27.94660386 41.9109145 29.31598578 44.18457056 30.6875 46.45703125 C31.10112793 47.14321533 31.51475586 47.82939941 31.94091797 48.53637695 C32.70442011 49.80253113 33.46898879 51.06804308 34.23486328 52.33276367 C35.94405328 55.17067174 37.57689456 58.00707723 39 61 C39.66 61 40.32 61 41 61 C41.556875 59.99582031 42.11375 58.99164063 42.6875 57.95703125 C46.93198836 50.33720423 51.2820565 42.82073111 55.8984375 35.41796875 C58.36014299 31.44690501 60.70708615 27.40968328 63.0625 23.375 C66.89533527 16.8163809 70.84916727 10.36369389 75 4 C69.70069777 2.81248129 64.80530773 2.19791947 60 5 C54.60504371 11.41735072 51.05077883 19.26894461 47.5012207 26.81274414 C47.00581787 27.53453857 46.51041504 28.25633301 46 29 C44.68 29 43.36 29 42 29 C42.67575003 25.34131173 44.24851776 22.58712806 46.125 19.39453125 C46.74890625 18.32912109 47.3728125 17.26371094 48.015625 16.16601562 C48.67046875 15.05935547 49.3253125 13.95269531 50 12.8125 C50.65484375 11.69423828 51.3096875 10.57597656 51.984375 9.42382812 C56.84319772 1.15680228 56.84319772 1.15680228 58 0 C59.63472882 -0.08700342 61.27314055 -0.10701063 62.91015625 -0.09765625 C63.89951172 -0.09443359 64.88886719 -0.09121094 65.90820312 -0.08789062 C66.94912109 -0.07951172 67.99003906 -0.07113281 69.0625 -0.0625 C70.62967773 -0.05573242 70.62967773 -0.05573242 72.22851562 -0.04882812 C74.8190666 -0.03699913 77.40950559 -0.02051689 80 0 C80.495 1.485 80.495 1.485 81 3 C79.99609375 4.875 79.99609375 4.875 78.4375 7 C75.45043099 11.25640087 72.95889086 15.62654431 70.52734375 20.21875 C68.52656263 23.86211613 66.28647367 27.3361165 64.00390625 30.80859375 C62.84573334 32.88698473 62.84573334 32.88698473 63.10546875 34.8984375 C64.36760259 37.86362531 66.02172515 40.46839088 67.75 43.1875 C70.22445556 47.13394509 72.6885775 51.08001063 75 55.125 C75.5878125 56.14980469 75.5878125 56.14980469 76.1875 57.1953125 C77 59 77 59 77 62 C77.99 62 78.98 62 80 62 C80.2671582 61.28682617 80.53431641 60.57365234 80.80957031 59.83886719 C82.03028039 56.92778909 83.45672239 54.3039648 85.046875 51.578125 C85.645 50.55203125 86.243125 49.5259375 86.859375 48.46875 C87.48328125 47.4065625 88.1071875 46.344375 88.75 45.25 C89.3584375 44.20328125 89.966875 43.1565625 90.59375 42.078125 C93.81408891 36.57327216 97.14768228 31.19919599 100.72705078 25.92138672 C102.32924813 23.5030336 103.71720466 21.00650423 105.0625 18.4375 C107.52590469 13.82267855 110.17577853 9.40246289 113 5 C108.13732024 4.22984395 103.83611173 3.96039517 99 5 C95.19285268 8.55047739 93.06957861 12.87407549 90.8125 17.5 C89.5874641 19.85401533 88.3347099 22.19166874 87.08203125 24.53125 C86.55843018 25.57861328 86.0348291 26.62597656 85.49536133 27.70507812 C85.00189209 28.46240234 84.50842285 29.21972656 84 30 C83.01 30 82.02 30 81 30 C81.35495239 23.67349573 84.62281165 19.10744355 87.875 13.875 C88.68904297 12.53501953 88.68904297 12.53501953 89.51953125 11.16796875 C90.99044515 8.76199955 92.46341579 6.36458269 94 4 C94.44915771 3.25411621 94.89831543 2.50823242 95.36108398 1.73974609 C97 0 97 0 99.36010742 -0.45410156 C100.26607666 -0.4331543 101.1720459 -0.41220703 102.10546875 -0.390625 C103.57983398 -0.37128906 103.57983398 -0.37128906 105.08398438 -0.3515625 C106.10814453 -0.31804688 107.13230469 -0.28453125 108.1875 -0.25 C109.74114258 -0.22292969 109.74114258 -0.22292969 111.32617188 -0.1953125 C113.88504284 -0.14814437 116.44205842 -0.08234057 119 0 C119.495 0.99 119.495 0.99 120 2 C119.01879883 4.11279297 119.01879883 4.11279297 117.45703125 6.7421875 C116.8837207 7.71607422 116.31041016 8.68996094 115.71972656 9.69335938 C115.0903418 10.74330078 114.46095703 11.79324219 113.8125 12.875 C113.1740918 13.95330078 112.53568359 15.03160156 111.87792969 16.14257812 C109.926599 19.43320924 107.96410171 22.71697969 106 26 C104.91496128 27.82528115 103.83029678 29.65078483 102.74609375 31.4765625 C97.67703556 39.98853934 92.53557286 48.44958632 87.20800781 56.80273438 C84.90405491 60.43973055 82.85858627 64.11656415 81 68 C78.66796875 67.78125 78.66796875 67.78125 76 67 C74.55078125 65.09375 74.55078125 65.09375 73.3125 62.5 C70.61335421 57.13713028 67.68941913 51.97181062 64.625 46.8125 C64.17165283 46.04550781 63.71830566 45.27851562 63.2512207 44.48828125 C62.16917109 42.65785371 61.0848328 40.82877941 60 39 C57.86155463 41.76649542 55.97722446 44.58694001 54.1875 47.58984375 C53.66929688 48.45673828 53.15109375 49.32363281 52.6171875 50.21679688 C52.08351562 51.11462891 51.54984375 52.01246094 51 52.9375 C50.46632812 53.83146484 49.93265625 54.72542969 49.3828125 55.64648438 C48.38570025 57.31701945 47.38949907 58.98809893 46.39453125 60.65991211 C45.93433594 61.43214111 45.47414062 62.20437012 45 63 C44.52949219 63.92240479 44.05898437 64.84480957 43.57421875 65.79516602 C43.05472656 66.52276123 42.53523438 67.25035645 42 68 C40.68 68 39.36 68 38 68 C36.62231445 66.42480469 36.62231445 66.42480469 35.36328125 64.171875 C34.87698242 63.32310791 34.39068359 62.47434082 33.88964844 61.59985352 C33.36918945 60.65940186 32.84873047 59.7189502 32.3125 58.75 C31.15966276 56.73186575 30.00460282 54.71500004 28.84765625 52.69921875 C28.23035645 51.61688965 27.61305664 50.53456055 26.97705078 49.41943359 C23.85524488 44.02007407 20.60767685 38.69896736 17.35696411 33.3765564 C16.25467387 31.57015938 15.15592631 29.76165685 14.05834961 27.95239258 C11.02326218 22.95090076 7.9807579 17.95507545 4.8828125 12.9921875 C4.44807617 12.28892334 4.01333984 11.58565918 3.56542969 10.86108398 C2.47527988 9.09953962 1.37486974 7.34435569 0.2734375 5.58984375 C-1 3 -1 3 0 0 Z " fill="#426073" transform="translate(31,28)"/>
<path d="M0 0 C5.61883903 2.18719909 9.69765183 6.04647774 13 11 C16.03943584 18.79750556 15.60556825 25.98302581 12.34375 33.625 C9.71160855 38.27715698 6.04375439 41.31874854 1 43 C-6.70773827 43.63536761 -12.80019597 43.90817819 -19 39 C-24.51932585 33.72597752 -25.88692481 28.66934011 -26.06640625 21.2578125 C-25.77262354 14.83020285 -24.44129125 9.79162211 -20 5 C-17.71915805 3.31266746 -15.59188306 2.22258635 -13 1 C-9.01286661 -0.99356669 -4.33424191 -0.51542336 0 0 Z " fill="#415F72" transform="translate(286,39)"/>
<path d="M0 0 C2.64 0 5.28 0 8 0 C8.32871094 0.63164063 8.65742188 1.26328125 8.99609375 1.9140625 C12.37218987 8.26368501 16.03648882 14.30188343 20.10327148 20.22705078 C22.31901683 23.54710651 23 24.8754214 23 29 C23.99 29 24.98 29 26 29 C25.9278125 28.07960938 25.855625 27.15921875 25.78125 26.2109375 C25.13863167 17.44633749 24.87806605 8.79279253 25 0 C27.31 0 29.62 0 32 0 C32 13.86 32 27.72 32 42 C25 42 25 42 23.14453125 40.27734375 C22.70496094 39.50519531 22.26539063 38.73304687 21.8125 37.9375 C21.32394531 37.10863281 20.83539063 36.27976563 20.33203125 35.42578125 C19.89246094 34.62527344 19.45289063 33.82476562 19 33 C18.34 31.88625 17.68 30.7725 17 29.625 C16.33003376 28.418493 15.66386708 27.20987371 15 26 C14.47921875 25.07316406 13.9584375 24.14632812 13.421875 23.19140625 C12.87015625 22.20011719 12.3184375 21.20882812 11.75 20.1875 C11.22921875 19.25292969 10.7084375 18.31835938 10.171875 17.35546875 C9 15 9 15 9 13 C8.34 13 7.68 13 7 13 C7 22.57 7 32.14 7 42 C4.69 42 2.38 42 0 42 C0 28.14 0 14.28 0 0 Z " fill="#405E71" transform="translate(309,40)"/>
<path d="M0 0 C9.24 0 18.48 0 28 0 C28 1.65 28 3.3 28 5 C25.23434618 5.92188461 23.61716298 6.11785222 20.76953125 6.09765625 C19.96708984 6.09443359 19.16464844 6.09121094 18.33789062 6.08789062 C17.08782227 6.07532227 17.08782227 6.07532227 15.8125 6.0625 C14.96751953 6.05798828 14.12253906 6.05347656 13.25195312 6.04882812 C11.16793845 6.03705403 9.08396023 6.0191189 7 6 C7 9.63 7 13.26 7 17 C8.35996094 16.98839844 9.71992188 16.97679688 11.12109375 16.96484375 C12.8932278 16.95546738 14.66536333 16.94636702 16.4375 16.9375 C17.78424805 16.92493164 17.78424805 16.92493164 19.15820312 16.91210938 C20.01220703 16.90888672 20.86621094 16.90566406 21.74609375 16.90234375 C22.93223267 16.89448853 22.93223267 16.89448853 24.14233398 16.88647461 C26 17 26 17 27 18 C27.125 20.5 27.125 20.5 27 23 C26 24 26 24 24.14233398 24.11352539 C23.35157471 24.10828857 22.56081543 24.10305176 21.74609375 24.09765625 C20.89208984 24.09443359 20.03808594 24.09121094 19.15820312 24.08789062 C17.81145508 24.07532227 17.81145508 24.07532227 16.4375 24.0625 C15.53580078 24.05798828 14.63410156 24.05347656 13.70507812 24.04882812 C11.47002411 24.03700244 9.23500398 24.01906638 7 24 C7 27.63 7 31.26 7 35 C13.93 35 20.86 35 28 35 C28 37.31 28 39.62 28 42 C18.76 42 9.52 42 0 42 C0 28.14 0 14.28 0 0 Z " fill="#415F73" transform="translate(156,40)"/>
<path d="M0 0 C4.0543433 2.46786114 5.54807275 4.55506483 7 9 C7.86041094 16.34350735 7.62277408 22.09312201 3 28 C-1.19403544 30.61138056 -5.19988594 30.5323919 -10 30 C-13.73748213 28.6187566 -14.748253 27.4166847 -16.8125 24 C-19.04426086 17.99337506 -18.88320446 11.47297249 -16.75 5.5 C-12.38966274 -0.72905323 -7.24797548 -1.82615007 0 0 Z " fill="#FCFDFD" transform="translate(286,46)"/>
<path d="M0 0 C3.96724754 2.01968966 6.47759883 3.73727671 8 8 C6.02 8.99 4.04 9.98 2 11 C1.278125 10.319375 0.55625 9.63875 -0.1875 8.9375 C-2.81042425 6.70066145 -2.81042425 6.70066145 -5.75 7.1875 C-7.93976633 7.79813062 -7.93976633 7.79813062 -9 9 C-9.04063832 10.66617115 -9.042721 12.33388095 -9 14 C-8.49549316 14.25168945 -7.99098633 14.50337891 -7.47119141 14.76269531 C-5.18277485 15.91296597 -2.90399872 17.08118876 -0.625 18.25 C0.1690625 18.64574219 0.963125 19.04148437 1.78125 19.44921875 C2.54179687 19.84238281 3.30234375 20.23554687 4.0859375 20.640625 C4.7876709 20.99672852 5.4894043 21.35283203 6.21240234 21.71972656 C8.38470198 23.2755227 9.06466961 24.51391388 10 27 C10.86284183 33.57916897 10.86284183 33.57916897 8.76171875 37.0390625 C5.64759617 40.79455523 3.57410028 42.7535006 -1.48828125 43.23828125 C-7.56837133 43.39806232 -11.22548114 43.17770401 -16 39 C-16.598125 38.525625 -17.19625 38.05125 -17.8125 37.5625 C-19.39621959 35.47865843 -19.65380469 33.56184528 -20 31 C-17.69 30.34 -15.38 29.68 -13 29 C-12.54625 29.969375 -12.0925 30.93875 -11.625 31.9375 C-10.34213779 35.07079582 -10.34213779 35.07079582 -8 36 C-6.08596924 36.19668734 -6.08596924 36.19668734 -4 36.1875 C-3.29875 36.20167969 -2.5975 36.21585938 -1.875 36.23046875 C0.24524938 36.16512323 0.24524938 36.16512323 2 34 C2.16677282 30.41656024 2.16677282 30.41656024 2 27 C1.21625 26.773125 0.4325 26.54625 -0.375 26.3125 C-6.06328294 24.25294928 -11.85353131 22.14646869 -16.1875 17.8125 C-17.47365695 13.36041826 -17.40788273 9.42684777 -16 5 C-12.06278603 -0.24185292 -6.17355128 -1.22348562 0 0 Z " fill="#415F72" transform="translate(245,39)"/>
<path d="M0 0 C11.22 0 22.44 0 34 0 C34 1.65 34 3.3 34 5 C33.67 5.33 33.34 5.66 33 6 C28.71 6 24.42 6 20 6 C20 17.88 20 29.76 20 42 C17.69 42 15.38 42 13 42 C13 30.12 13 18.24 13 6 C8.71 6 4.42 6 0 6 C0 4.02 0 2.04 0 0 Z " fill="#3E5C70" transform="translate(189,40)"/>
</svg>
