<svg version="1.1" id="Layer_1" xmlns="http://www.w3.org/2000/svg" xmlns:xlink="http://www.w3.org/1999/xlink" x="0px" y="0px"
	 width="100%" viewBox="0 0 344 103" enable-background="new 0 0 344 103" xml:space="preserve">
<path fill="#FFFEFE" opacity="1.000000" stroke="none" 
	d="
M232.000000,104.000000 
	C154.666687,104.000000 77.833382,104.000000 1.000051,104.000000 
	C1.000034,69.666702 1.000034,35.333401 1.000017,1.000075 
	C115.666595,1.000050 230.333191,1.000050 344.999817,1.000025 
	C344.999878,35.333256 344.999878,69.666512 344.999939,103.999886 
	C307.500000,104.000000 270.000000,104.000000 232.000000,104.000000 
M58.817326,87.211143 
	C64.269058,78.137733 69.720795,69.064331 75.392265,59.625221 
	C76.289680,60.968521 76.871292,61.766998 77.378853,62.610058 
	C82.186668,70.595795 86.934982,78.617813 91.800461,86.568176 
	C94.242935,90.559280 95.558701,90.495979 98.050598,86.474342 
	C99.716293,83.786095 101.309311,81.052841 102.936844,78.340927 
	C113.301781,61.070206 123.687866,43.812115 134.019348,26.521404 
	C136.903870,21.693893 136.452194,20.981213 130.792404,20.951714 
	C125.960640,20.926531 121.102531,20.657619 116.309578,21.089783 
	C114.394913,21.262426 111.920563,22.573139 110.908333,24.143850 
	C106.404160,31.133131 102.232475,38.346214 98.204803,45.624596 
	C97.444748,46.998070 97.886627,49.036667 97.773903,50.768356 
	C99.122520,49.834248 100.944946,49.194813 101.740005,47.916435 
	C105.781494,41.418076 109.514374,34.728600 113.464218,28.171654 
	C114.182053,26.980015 115.339607,25.295839 116.408142,25.206795 
	C120.561798,24.860659 124.761398,25.065804 129.772110,25.065804 
	C117.899475,44.861607 106.639450,63.635967 94.885857,83.233299 
	C89.631233,74.510323 84.979958,66.520523 80.030045,58.720242 
	C78.342964,56.061672 78.537048,54.078140 80.125023,51.520733 
	C85.480537,42.895752 90.618561,34.135780 95.846519,25.431494 
	C97.394913,22.853483 97.548508,20.956028 93.717659,20.952579 
	C87.886055,20.947332 82.044189,20.764380 76.230186,21.084227 
	C74.804367,21.162666 72.991135,22.599785 72.172600,23.918947 
	C67.698257,31.129890 63.388073,38.448421 59.257240,45.861355 
	C58.538601,47.150974 58.946262,49.068226 58.833717,50.695583 
	C60.201061,49.804550 62.065483,49.225292 62.852608,47.970333 
	C67.007294,41.346291 70.820717,34.508850 74.931747,27.856184 
	C75.677719,26.649004 77.194336,25.269760 78.462723,25.154631 
	C82.345886,24.802166 86.281395,25.026501 91.002029,25.026501 
	C79.216774,44.659611 67.889351,63.530018 56.051811,83.250237 
	C44.218147,63.521610 32.916355,44.679707 21.370125,25.430286 
	C32.059143,25.430286 41.850460,25.430286 51.986828,25.430286 
	C50.614529,28.106644 49.320496,30.253653 48.435760,32.557819 
	C48.121235,33.376961 48.595600,34.714870 49.138775,35.530224 
	C49.328491,35.814999 51.302193,35.538773 51.618340,35.012455 
	C54.117313,30.852198 56.412502,26.569532 58.829308,22.218363 
	C57.266052,21.465946 56.836514,21.079771 56.405060,21.077618 
	C43.577950,21.013615 30.750650,20.970219 17.923374,20.968079 
	C14.746754,20.967550 14.731698,22.735453 15.987459,24.917566 
	C17.979246,28.378660 20.047646,31.795929 22.102371,35.220497 
	C32.291405,52.202332 42.483509,69.182327 52.683167,86.157776 
	C54.075230,88.474609 55.321213,91.448669 58.817326,87.211143 
M249.253662,68.155235 
	C256.312744,76.017441 267.617859,77.950439 276.343872,72.787201 
	C284.762054,67.806114 288.223450,55.719456 284.344910,44.848568 
	C281.364716,36.495609 274.455292,31.900892 265.045166,32.014351 
	C256.058655,32.122700 248.914520,36.920547 246.359116,45.044895 
	C243.912201,52.824276 244.296921,60.448376 249.253662,68.155235 
M301.005096,52.774109 
	C301.005096,50.856773 301.005096,48.939438 301.005096,47.022106 
	C306.575836,54.688572 311.614685,62.438221 315.938324,70.568214 
	C318.443512,75.278793 321.676788,75.646988 325.913727,74.541122 
	C325.913727,60.552677 325.913727,46.835613 325.913727,33.125786 
	C323.482391,33.125786 321.433075,33.125786 318.818604,33.125786 
	C318.818604,42.463726 318.818604,51.435875 318.818604,61.782436 
	C313.426849,52.827541 308.516235,45.310665 304.299347,37.422909 
	C301.860382,32.860775 298.826111,31.792967 294.062317,33.320679 
	C294.062317,47.062584 294.062317,60.780315 294.062317,74.749496 
	C296.386719,74.749496 298.451111,74.749496 301.004883,74.749496 
	C301.004883,67.593483 301.004883,60.648781 301.005096,52.774109 
M166.902710,50.395977 
	C160.977112,50.395977 155.051514,50.395977 149.072693,50.395977 
	C149.072693,46.396080 149.072693,43.325970 149.072693,39.734337 
	C155.810745,39.734337 162.227463,39.734337 168.805573,39.734337 
	C168.805573,37.122322 168.805573,35.044380 168.805573,32.849941 
	C159.443726,32.849941 150.366669,32.849941 141.370483,32.849941 
	C141.370483,47.061935 141.370483,60.945065 141.370483,74.763504 
	C150.718094,74.763504 159.659637,74.763504 168.808075,74.763504 
	C168.808075,72.457138 168.808075,70.400024 168.808075,67.828598 
	C162.128265,67.828598 155.713593,67.828598 149.097839,67.828598 
	C149.097839,64.103004 149.097839,60.896759 149.097839,57.039444 
	C155.494431,57.039444 161.551224,57.039444 167.905441,57.039444 
	C167.770981,54.571651 167.673004,52.773354 166.902710,50.395977 
M180.832184,72.843224 
	C183.659485,73.727768 186.432175,75.048508 189.324875,75.410545 
	C196.432785,76.300148 203.074478,72.182877 204.772034,66.296646 
	C206.706482,59.589016 203.909882,54.682800 196.100555,51.121746 
	C193.236359,49.815670 190.132217,48.871742 187.575958,47.122074 
	C186.256058,46.218643 184.862625,43.451611 185.352921,42.350765 
	C186.035736,40.817650 188.560822,39.034271 190.103897,39.196667 
	C192.656769,39.465332 195.055222,41.201275 198.173721,42.616138 
	C199.330261,41.875397 201.198090,40.679073 203.675446,39.092361 
	C201.445328,37.093811 199.927673,35.301247 198.031509,34.112434 
	C191.296783,29.890022 181.584839,32.131004 178.363327,38.472126 
	C175.052109,44.989841 178.029602,51.177734 186.295975,54.942039 
	C189.012085,56.178883 192.052399,56.991203 194.344238,58.770699 
	C195.859604,59.947300 197.189346,62.617638 196.954300,64.402176 
	C196.761703,65.864357 194.315018,67.715858 192.555878,68.159836 
	C186.733017,69.629425 183.255417,66.385292 181.332733,61.189629 
	C178.961548,61.868984 176.927963,62.451614 173.295776,63.492256 
	C175.996216,66.973717 178.107681,69.695854 180.832184,72.843224 
M220.910416,42.699604 
	C220.910416,53.418594 220.910416,64.137589 220.910416,74.782883 
	C223.867874,74.782883 225.988083,74.782883 228.796295,74.782883 
	C228.796295,63.036980 228.796295,51.502949 228.796295,39.365509 
	C233.526199,39.365509 237.570496,39.365509 241.536469,39.365509 
	C241.536469,36.821785 241.536469,34.915527 241.536469,32.821732 
	C230.132629,32.821732 219.071777,32.821732 207.887604,32.821732 
	C207.887604,35.166470 207.887604,37.186367 207.887604,39.590557 
	C211.287308,39.590557 214.279404,39.379421 217.216827,39.688282 
	C218.498672,39.823059 219.668488,41.023224 220.910416,42.699604 
z"/>
<path fill="#FF5F5F" opacity="1.000000" stroke="none" 
	d="
M58.623039,87.500336 
	C55.321213,91.448669 54.075230,88.474609 52.683167,86.157776 
	C42.483509,69.182327 32.291405,52.202332 22.102371,35.220497 
	C20.047646,31.795929 17.979246,28.378660 15.987459,24.917566 
	C14.731698,22.735453 14.746754,20.967550 17.923374,20.968079 
	C30.750650,20.970219 43.577950,21.013615 56.405060,21.077618 
	C56.836514,21.079771 57.266052,21.465946 58.829308,22.218363 
	C56.412502,26.569532 54.117313,30.852198 51.618340,35.012455 
	C51.302193,35.538773 49.328491,35.814999 49.138775,35.530224 
	C48.595600,34.714870 48.121235,33.376961 48.435760,32.557819 
	C49.320496,30.253653 50.614529,28.106644 51.986828,25.430286 
	C41.850460,25.430286 32.059143,25.430286 21.370125,25.430286 
	C32.916355,44.679707 44.218147,63.521610 56.051811,83.250237 
	C67.889351,63.530018 79.216774,44.659611 91.002029,25.026501 
	C86.281395,25.026501 82.345886,24.802166 78.462723,25.154631 
	C77.194336,25.269760 75.677719,26.649004 74.931747,27.856184 
	C70.820717,34.508850 67.007294,41.346291 62.852608,47.970333 
	C62.065483,49.225292 60.201061,49.804550 58.833717,50.695587 
	C58.946262,49.068226 58.538601,47.150974 59.257240,45.861355 
	C63.388073,38.448421 67.698257,31.129890 72.172600,23.918947 
	C72.991135,22.599785 74.804367,21.162666 76.230186,21.084227 
	C82.044189,20.764380 87.886055,20.947332 93.717659,20.952579 
	C97.548508,20.956028 97.394913,22.853483 95.846519,25.431494 
	C90.618561,34.135780 85.480537,42.895752 80.125023,51.520733 
	C78.537048,54.078140 78.342964,56.061672 80.030045,58.720242 
	C84.979958,66.520523 89.631233,74.510323 94.885857,83.233299 
	C106.639450,63.635967 117.899475,44.861607 129.772110,25.065804 
	C124.761398,25.065804 120.561798,24.860659 116.408142,25.206795 
	C115.339607,25.295839 114.182053,26.980015 113.464218,28.171654 
	C109.514374,34.728600 105.781494,41.418076 101.740005,47.916435 
	C100.944946,49.194813 99.122520,49.834248 97.773903,50.768356 
	C97.886627,49.036667 97.444748,46.998070 98.204803,45.624596 
	C102.232475,38.346214 106.404160,31.133131 110.908333,24.143850 
	C111.920563,22.573139 114.394913,21.262426 116.309578,21.089783 
	C121.102531,20.657619 125.960640,20.926531 130.792404,20.951714 
	C136.452194,20.981213 136.903870,21.693893 134.019348,26.521404 
	C123.687866,43.812115 113.301781,61.070206 102.936844,78.340927 
	C101.309311,81.052841 99.716293,83.786095 98.050598,86.474342 
	C95.558701,90.495979 94.242935,90.559280 91.800461,86.568176 
	C86.934982,78.617813 82.186668,70.595795 77.378853,62.610058 
	C76.871292,61.766998 76.289680,60.968521 75.392265,59.625221 
	C69.720795,69.064331 64.269058,78.137733 58.623039,87.500336 
z"/>
<path fill="#FF5D5D" opacity="1.000000" stroke="none" 
	d="
M249.063736,67.838341 
	C244.296921,60.448376 243.912201,52.824276 246.359116,45.044895 
	C248.914520,36.920547 256.058655,32.122700 265.045166,32.014351 
	C274.455292,31.900892 281.364716,36.495609 284.344910,44.848568 
	C288.223450,55.719456 284.762054,67.806114 276.343872,72.787201 
	C267.617859,77.950439 256.312744,76.017441 249.063736,67.838341 
M277.796021,51.838257 
	C276.030731,43.048985 273.114258,39.579838 266.993958,38.989201 
	C257.952057,38.116623 252.475754,44.459820 253.042450,55.149216 
	C253.481247,63.425919 257.664551,68.357437 264.658356,68.842682 
	C271.705688,69.331627 276.334778,65.009117 277.636505,56.644554 
	C277.839142,55.342655 277.779266,53.999908 277.796021,51.838257 
z"/>
<path fill="#FF5959" opacity="1.000000" stroke="none" 
	d="
M301.005005,53.239094 
	C301.004883,60.648781 301.004883,67.593483 301.004883,74.749496 
	C298.451111,74.749496 296.386719,74.749496 294.062317,74.749496 
	C294.062317,60.780315 294.062317,47.062584 294.062317,33.320679 
	C298.826111,31.792967 301.860382,32.860775 304.299347,37.422909 
	C308.516235,45.310665 313.426849,52.827541 318.818604,61.782436 
	C318.818604,51.435875 318.818604,42.463726 318.818604,33.125786 
	C321.433075,33.125786 323.482391,33.125786 325.913727,33.125786 
	C325.913727,46.835613 325.913727,60.552677 325.913727,74.541122 
	C321.676788,75.646988 318.443512,75.278793 315.938324,70.568214 
	C311.614685,62.438221 306.575836,54.688572 301.005096,47.022106 
	C301.005096,48.939438 301.005096,50.856773 301.005005,53.239094 
z"/>
<path fill="#FF5C5C" opacity="1.000000" stroke="none" 
	d="
M167.238861,50.685516 
	C167.673004,52.773354 167.770981,54.571651 167.905441,57.039444 
	C161.551224,57.039444 155.494431,57.039444 149.097839,57.039444 
	C149.097839,60.896759 149.097839,64.103004 149.097839,67.828598 
	C155.713593,67.828598 162.128265,67.828598 168.808075,67.828598 
	C168.808075,70.400024 168.808075,72.457138 168.808075,74.763504 
	C159.659637,74.763504 150.718094,74.763504 141.370483,74.763504 
	C141.370483,60.945065 141.370483,47.061935 141.370483,32.849941 
	C150.366669,32.849941 159.443726,32.849941 168.805573,32.849941 
	C168.805573,35.044380 168.805573,37.122322 168.805573,39.734337 
	C162.227463,39.734337 155.810745,39.734337 149.072693,39.734337 
	C149.072693,43.325970 149.072693,46.396080 149.072693,50.395977 
	C155.051514,50.395977 160.977112,50.395977 167.238861,50.685516 
z"/>
<path fill="#FF5D5D" opacity="1.000000" stroke="none" 
	d="
M180.525665,72.630608 
	C178.107681,69.695854 175.996216,66.973717 173.295776,63.492256 
	C176.927963,62.451614 178.961548,61.868984 181.332733,61.189629 
	C183.255417,66.385292 186.733017,69.629425 192.555878,68.159836 
	C194.315018,67.715858 196.761703,65.864357 196.954300,64.402176 
	C197.189346,62.617638 195.859604,59.947300 194.344238,58.770699 
	C192.052399,56.991203 189.012085,56.178883 186.295975,54.942039 
	C178.029602,51.177734 175.052109,44.989841 178.363327,38.472126 
	C181.584839,32.131004 191.296783,29.890022 198.031509,34.112434 
	C199.927673,35.301247 201.445328,37.093811 203.675446,39.092361 
	C201.198090,40.679073 199.330261,41.875397 198.173721,42.616138 
	C195.055222,41.201275 192.656769,39.465332 190.103897,39.196667 
	C188.560822,39.034271 186.035736,40.817650 185.352921,42.350765 
	C184.862625,43.451611 186.256058,46.218643 187.575958,47.122074 
	C190.132217,48.871742 193.236359,49.815670 196.100555,51.121746 
	C203.909882,54.682800 206.706482,59.589016 204.772034,66.296646 
	C203.074478,72.182877 196.432785,76.300148 189.324875,75.410545 
	C186.432175,75.048508 183.659485,73.727768 180.525665,72.630608 
z"/>
<path fill="#FF5D5D" opacity="1.000000" stroke="none" 
	d="
M220.899811,42.219582 
	C219.668488,41.023224 218.498672,39.823059 217.216827,39.688282 
	C214.279404,39.379421 211.287308,39.590557 207.887604,39.590557 
	C207.887604,37.186367 207.887604,35.166470 207.887604,32.821732 
	C219.071777,32.821732 230.132629,32.821732 241.536469,32.821732 
	C241.536469,34.915527 241.536469,36.821785 241.536469,39.365509 
	C237.570496,39.365509 233.526199,39.365509 228.796295,39.365509 
	C228.796295,51.502949 228.796295,63.036980 228.796295,74.782883 
	C225.988083,74.782883 223.867874,74.782883 220.910416,74.782883 
	C220.910416,64.137589 220.910416,53.418594 220.899811,42.219582 
z"/>
<path fill="#FFFCFC" opacity="1.000000" stroke="none" 
	d="
M277.818390,52.257153 
	C277.779266,53.999908 277.839142,55.342655 277.636505,56.644554 
	C276.334778,65.009117 271.705688,69.331627 264.658356,68.842682 
	C257.664551,68.357437 253.481247,63.425919 253.042450,55.149216 
	C252.475754,44.459820 257.952057,38.116623 266.993958,38.989201 
	C273.114258,39.579838 276.030731,43.048985 277.818390,52.257153 
z"/>
</svg>